M48
;GenerationSoftware,Autodesk,EAGLE,9.6.2*%
;CreationDate,2021-02-22T13:57:55Z*%
FMAT,2
ICI,OFF
METRIC,TZ,000.000
T10C0.350
T9C0.813
T8C0.900
T7C1.118
T6C1.194
T5C1.600
T4C1.702
T3C3.100
T2C3.200
T1C5.000
%
G90
M71
T1
X6280Y82550
X13280Y82550
T2
X100584Y85598
X65532Y44450
X6858Y49276
X6858Y11176
X100584Y11430
T3
X71270Y83820
X37950Y83820
T4
X104140Y44069
X98298Y47879
X104140Y47879
X98298Y44069
X96139Y77978
X99949Y77978
T5
X17374Y11684
X64414Y11684
T6
X51968Y13106
X49200Y13106
X46431Y13106
X43663Y13106
X40894Y13106
X54737Y13106
X57506Y13106
X50584Y10262
X25667Y10262
X28435Y10262
X33973Y10262
X36741Y10262
X39510Y10262
X42278Y10262
X45047Y10262
X31204Y10262
X47815Y10262
X53353Y10262
X56121Y10262
X24282Y13106
X27051Y13106
X29820Y13106
X32588Y13106
X35357Y13106
X38125Y13106
T7
X6350Y58928
X6350Y55118
X14224Y41148
X6350Y62738
X20828Y24638
X20828Y27940
X20828Y31242
X20828Y34544
X20828Y21336
X20828Y37846
X17526Y27940
X17526Y41148
X17526Y31242
X20828Y41148
X17526Y34544
X17526Y21336
X17526Y37846
X17526Y24638
X14224Y21336
X4318Y37846
X4318Y41148
X14224Y37846
X4318Y21336
X14224Y34544
X14224Y31242
X10922Y27940
X10922Y21336
X14224Y27940
X10922Y34544
X7620Y21336
X10922Y37846
X7620Y24638
X10922Y41148
X7620Y27940
X10922Y24638
X10922Y31242
X14224Y24638
X7620Y31242
X7620Y34544
X7620Y37846
X7620Y41148
X4318Y24638
X4318Y27940
X4318Y31242
X4318Y34544
T8
X60090Y82400
X26670Y47990
X26670Y45990
X45020Y85240
X47760Y85240
X50500Y85240
X53240Y85240
X55980Y85240
X58720Y85240
X61460Y85240
X64200Y85240
X46390Y82400
X49130Y82400
X51870Y82400
X54610Y82400
X57350Y82400
X62830Y82400
T9
X58420Y57150
X66040Y57150
X66040Y59690
X58420Y59690
T10
X44450Y54610
X44450Y53340
X43180Y48260
X41910Y48260
X40640Y48260
X40640Y66040
X41910Y66040
X43180Y66040
X44450Y72390
X44450Y71120
X64770Y53340
X10160Y58928
X17780Y54610
X21590Y86360
X22860Y86360
X5080Y77470
X31750Y59690
X113284Y21590
X113030Y19050
X113741Y16713
X114452Y13970
X77724Y20320
X89916Y71120
X77724Y22860
X77724Y25400
X77724Y27940
X77724Y30480
X77724Y33020
X89916Y68580
X77724Y66040
X77651Y15240
X77724Y17780
X77724Y68580
X106861Y15240
X106934Y17780
X106934Y20320
X107188Y30480
X107188Y27940
X107188Y25400
X106934Y22860
X89916Y73660
X89916Y76200
X77724Y71120
X77724Y73660
X77724Y76200
X89916Y63500
X106680Y73660
X99822Y68326
X89916Y66040
X106680Y76200
X96012Y68326
X73406Y39878
X29210Y49530
X107188Y33020
X104140Y41910
X41910Y43180
X16510Y64770
X12700Y66040
X11430Y73660
X12700Y73660
X21590Y62230
X20320Y63500
X15240Y77470
X15240Y76200
X73406Y38862
X119126Y33020
X26670Y52070
X73406Y37846
X119126Y30480
X26670Y54610
X55880Y49530
X49530Y49530
X49530Y67310
X75946Y62230
X41910Y60960
X96520Y56388
X96520Y60960
X39370Y69850
X39370Y71120
X39370Y72390
X46990Y53340
X44450Y49530
X46990Y71120
X44450Y67310
X74422Y64008
X75946Y57150
X93980Y58420
X39370Y52070
X39370Y53340
X39370Y54610
X34290Y63500
X35560Y63500
X43180Y60960
X40640Y60960
X43180Y43180
X40640Y43180
X83058Y60960
X67310Y82296
X106934Y59690
X106934Y63500
X31750Y57150
M30