M48
;GenerationSoftware,Autodesk,EAGLE,9.6.2*%
;CreationDate,2021-02-15T13:07:44Z*%
FMAT,2
ICI,OFF
METRIC,TZ,000.000
T9C0.350
T8C0.813
T7C0.900
T6C1.118
T5C1.194
T4C1.600
T3C1.702
T2C3.100
T1C5.000
%
G90
M71
T1
X13280Y82550
X6280Y82550
T2
X37950Y83820
X71270Y83820
T3
X98298Y47879
X98298Y44069
X104140Y47879
X104140Y44069
X67945Y72390
X64135Y72390
T4
X64160Y12700
X17120Y12700
T5
X47561Y11278
X30950Y11278
X44793Y11278
X39256Y11278
X36487Y11278
X33719Y11278
X42024Y11278
X35103Y14122
X32334Y14122
X29566Y14122
X26797Y14122
X24028Y14122
X55867Y11278
X25413Y11278
X28181Y11278
X53099Y11278
X50330Y11278
X40640Y14122
X43409Y14122
X46177Y14122
X48946Y14122
X51714Y14122
X54483Y14122
X57252Y14122
X37871Y14122
T6
X17526Y34544
X6350Y53340
X6350Y57150
X6350Y60960
X20828Y41148
X17526Y41148
X17526Y27940
X20828Y37846
X20828Y21336
X20828Y34544
X20828Y31242
X20828Y27940
X20828Y24638
X10922Y21336
X17526Y31242
X4318Y41148
X4318Y37846
X4318Y34544
X4318Y31242
X4318Y27940
X4318Y24638
X7620Y41148
X7620Y37846
X7620Y34544
X7620Y31242
X10922Y31242
X7620Y27940
X10922Y41148
X7620Y24638
X10922Y37846
X7620Y21336
X10922Y34544
X10922Y27940
X14224Y41148
X10922Y24638
X14224Y37846
X4318Y21336
X14224Y34544
X14224Y31242
X14224Y27940
X14224Y24638
X14224Y21336
X17526Y24638
X17526Y37846
X17526Y21336
T7
X61460Y85240
X25130Y48260
X23130Y48260
X45020Y85240
X47760Y85240
X50500Y85240
X53240Y85240
X55980Y85240
X51870Y82400
X49130Y82400
X62830Y82400
X60090Y82400
X57350Y82400
X46390Y82400
X64200Y85240
X58720Y85240
X54610Y82400
T8
X58420Y59690
X58420Y57150
X66040Y57150
X66040Y59690
T9
X77470Y30480
X77470Y27940
X77470Y17780
X90170Y27940
X90170Y25400
X90170Y22860
X77470Y25400
X77470Y22860
X77470Y20320
X77470Y15240
X91440Y21590
X102870Y77470
X27940Y17780
X93980Y16510
X25400Y19050
X104140Y22860
X105410Y25400
X105410Y26670
X106680Y29210
X106680Y19050
X106680Y16510
X107115Y13970
X44450Y54610
X44450Y53340
X43180Y48260
X41910Y48260
X40640Y48260
X40640Y66040
X41910Y66040
X43180Y66040
X44450Y72390
X44450Y71120
X64770Y53340
X11430Y57150
X17780Y54610
X21590Y86360
X22860Y86360
X5080Y77470
X31750Y59690
X92710Y19050
X31750Y57150
X90170Y63500
X90170Y66040
X77470Y63500
X77470Y66040
X104140Y63500
X104140Y66040
X67310Y81280
X76200Y72390
X74930Y74930
X76200Y82550
X102870Y74930
X104140Y59690
X113030Y13970
X113030Y16510
X113030Y19050
X112832Y31552
X113030Y29210
X113030Y26670
X113030Y24130
X113030Y21590
X83820Y33020
X83820Y30480
X83820Y27940
X83820Y13970
X83820Y16510
X83820Y19050
X83820Y21590
X83820Y24130
X98298Y41910
X40640Y43180
X43180Y43180
X40640Y60960
X43180Y60960
X41910Y60960
X35560Y63500
X34290Y63500
X39370Y54610
X39370Y53340
X39370Y52070
X71120Y49530
X71120Y50800
X93980Y58420
X76200Y87630
X44450Y67310
X46990Y71120
X44450Y49530
X46990Y53340
X39370Y72390
X39370Y71120
X39370Y69850
X71120Y67310
X71120Y66040
X96520Y60960
X96520Y56388
X49530Y67310
X26670Y52070
X49530Y49530
X55880Y49530
X26670Y54610
X36830Y39370
X43180Y33020
X95250Y29210
X113030Y34290
X116840Y29210
X38100Y40640
X44450Y34290
X95250Y31750
X114300Y35560
X15240Y76200
X15240Y77470
X20320Y63500
X21590Y62230
X12700Y73660
X11430Y73660
X12700Y66040
X16510Y64770
X41910Y43180
X35560Y38100
X41910Y31750
X95250Y26670
X106680Y31750
X71120Y76200
X73660Y73660
X77470Y33020
M30