G04 EAGLE Gerber RS-274X export*
G75*
%MOMM*%
%FSLAX34Y34*%
%LPD*%
%INSoldermask Top*%
%IPPOS*%
%AMOC8*
5,1,8,0,0,1.08239X$1,22.5*%
G01*
%ADD10C,3.403200*%
%ADD11R,1.503200X1.703200*%
%ADD12R,1.703200X1.503200*%
%ADD13R,2.703200X4.203200*%
%ADD14R,1.603200X1.203200*%
%ADD15R,2.743200X1.203200*%
%ADD16R,6.403200X5.603200*%
%ADD17R,1.803200X1.203200*%
%ADD18C,1.879600*%
%ADD19R,1.253200X0.803200*%
%ADD20P,6.731600X8X202.500000*%
%ADD21R,1.403200X0.603200*%
%ADD22C,1.611200*%
%ADD23C,1.524000*%
%ADD24R,1.611200X1.611200*%
%ADD25C,4.319200*%
%ADD26R,2.003200X3.403200*%
%ADD27C,1.993900*%
%ADD28C,2.603500*%
%ADD29C,2.755900*%
%ADD30R,3.953200X1.203200*%
%ADD31R,0.803200X0.703200*%
%ADD32P,2.969212X8X22.500000*%
%ADD33C,0.959600*%


D10*
X68580Y492760D03*
X68580Y111760D03*
X1005840Y114300D03*
X1005840Y855980D03*
X655320Y444500D03*
D11*
X409600Y698500D03*
X428600Y698500D03*
X409600Y723900D03*
X428600Y723900D03*
X517500Y635000D03*
X498500Y635000D03*
D12*
X406400Y447700D03*
X406400Y466700D03*
X431800Y447700D03*
X431800Y466700D03*
D11*
X504800Y533400D03*
X485800Y533400D03*
X409600Y520700D03*
X428600Y520700D03*
X409600Y546100D03*
X428600Y546100D03*
X517500Y457200D03*
X498500Y457200D03*
D13*
X254000Y760100D03*
X254000Y840100D03*
D12*
X406400Y625500D03*
X406400Y644500D03*
X431800Y625500D03*
X431800Y644500D03*
D11*
X504800Y711200D03*
X485800Y711200D03*
D14*
X99900Y736600D03*
X77900Y727100D03*
X77900Y746100D03*
D15*
X368300Y674300D03*
X368300Y697300D03*
X368300Y496500D03*
X368300Y519500D03*
D16*
X253600Y685800D03*
D17*
X180600Y708600D03*
X180600Y663000D03*
D12*
X508000Y682600D03*
X508000Y663600D03*
X50800Y758800D03*
X50800Y739800D03*
X533400Y485800D03*
X533400Y504800D03*
D11*
X498500Y431800D03*
X517500Y431800D03*
D12*
X508000Y504800D03*
X508000Y485800D03*
X76200Y663600D03*
X76200Y682600D03*
X101600Y682600D03*
X101600Y663600D03*
X533400Y663600D03*
X533400Y682600D03*
D11*
X498500Y609600D03*
X517500Y609600D03*
D18*
X71882Y551180D02*
X55118Y551180D01*
X55118Y589280D02*
X71882Y589280D01*
X71882Y627380D02*
X55118Y627380D01*
D19*
X456400Y682600D03*
X456400Y673100D03*
X456400Y663600D03*
X483400Y673100D03*
X483400Y663600D03*
X483400Y682600D03*
X456400Y504800D03*
X456400Y495300D03*
X456400Y485800D03*
X483400Y495300D03*
X483400Y485800D03*
X483400Y504800D03*
D20*
X132800Y825500D03*
X62800Y825500D03*
D21*
X228300Y568550D03*
X228300Y562050D03*
X228300Y555550D03*
X228300Y549050D03*
X254300Y549050D03*
X254300Y555550D03*
X254300Y562050D03*
X254300Y568550D03*
D11*
X301600Y571500D03*
X282600Y571500D03*
X301600Y596900D03*
X282600Y596900D03*
X282600Y520700D03*
X301600Y520700D03*
X282600Y546100D03*
X301600Y546100D03*
D22*
X266700Y479900D03*
X266700Y459900D03*
D12*
X203200Y542900D03*
X203200Y523900D03*
D23*
X577596Y596900D02*
X590804Y596900D01*
X590804Y571500D02*
X577596Y571500D01*
X653796Y571500D02*
X667004Y571500D01*
X667004Y596900D02*
X653796Y596900D01*
D22*
X450200Y852400D03*
X477600Y852400D03*
X505000Y852400D03*
X532400Y852400D03*
X559800Y852400D03*
X587200Y852400D03*
X614600Y852400D03*
D24*
X642000Y852400D03*
D22*
X463900Y824000D03*
X491300Y824000D03*
X518700Y824000D03*
X546100Y824000D03*
X573500Y824000D03*
X600900Y824000D03*
X628300Y824000D03*
D25*
X379500Y838200D03*
X712700Y838200D03*
D26*
X162500Y596900D03*
X218500Y596900D03*
D27*
X408940Y131064D03*
X436626Y131064D03*
X464312Y131064D03*
X491998Y131064D03*
X519684Y131064D03*
X547370Y131064D03*
X575056Y131064D03*
X381254Y131064D03*
X353568Y131064D03*
X325882Y131064D03*
X298196Y131064D03*
X270510Y131064D03*
X242824Y131064D03*
X561213Y102616D03*
X533527Y102616D03*
X505841Y102616D03*
X478155Y102616D03*
X450469Y102616D03*
X422783Y102616D03*
X395097Y102616D03*
X367411Y102616D03*
X339725Y102616D03*
X312039Y102616D03*
X284353Y102616D03*
X256667Y102616D03*
D28*
X173736Y116840D03*
X644144Y116840D03*
D29*
X961390Y767017D02*
X961390Y792544D01*
X999490Y792544D02*
X999490Y767017D01*
D30*
X804450Y330200D03*
X871950Y330200D03*
X804450Y304800D03*
X871950Y304800D03*
X804450Y279400D03*
X871950Y279400D03*
X804450Y254000D03*
X871950Y254000D03*
X804450Y228600D03*
X871950Y228600D03*
X804450Y203200D03*
X871950Y203200D03*
X804450Y177800D03*
X871950Y177800D03*
X804450Y152400D03*
X871950Y152400D03*
X804450Y762000D03*
X871950Y762000D03*
X804450Y736600D03*
X871950Y736600D03*
X804450Y711200D03*
X871950Y711200D03*
X804450Y685800D03*
X871950Y685800D03*
X804450Y660400D03*
X871950Y660400D03*
X804450Y635000D03*
X871950Y635000D03*
X804450Y609600D03*
X871950Y609600D03*
X804450Y584200D03*
X871950Y584200D03*
X1096550Y762000D03*
X1164050Y762000D03*
X1096550Y736600D03*
X1164050Y736600D03*
X1096550Y711200D03*
X1164050Y711200D03*
X1096550Y685800D03*
X1164050Y685800D03*
X1096550Y660400D03*
X1164050Y660400D03*
X1096550Y635000D03*
X1164050Y635000D03*
X1096550Y609600D03*
X1164050Y609600D03*
X1096550Y584200D03*
X1164050Y584200D03*
X1096550Y330200D03*
X1164050Y330200D03*
X1096550Y304800D03*
X1164050Y304800D03*
X1096550Y279400D03*
X1164050Y279400D03*
X1096550Y254000D03*
X1164050Y254000D03*
X1096550Y228600D03*
X1164050Y228600D03*
X1096550Y203200D03*
X1164050Y203200D03*
X1096550Y177800D03*
X1164050Y177800D03*
X1096550Y152400D03*
X1164050Y152400D03*
D31*
X1044020Y622300D03*
X1054020Y622300D03*
X1044020Y596900D03*
X1054020Y596900D03*
D32*
X43180Y411480D03*
X43180Y378460D03*
X43180Y345440D03*
X43180Y312420D03*
X43180Y279400D03*
X43180Y246380D03*
X76200Y411480D03*
X76200Y378460D03*
X76200Y345440D03*
X76200Y312420D03*
X109220Y312420D03*
X76200Y279400D03*
X109220Y411480D03*
X76200Y246380D03*
X109220Y378460D03*
X76200Y213360D03*
X109220Y345440D03*
X109220Y213360D03*
X109220Y279400D03*
X142240Y411480D03*
X109220Y246380D03*
X142240Y378460D03*
X43180Y213360D03*
X142240Y345440D03*
X142240Y312420D03*
X142240Y279400D03*
X142240Y246380D03*
X142240Y213360D03*
X175260Y246380D03*
X175260Y378460D03*
X175260Y213360D03*
X175260Y345440D03*
X208280Y411480D03*
X175260Y312420D03*
X175260Y411480D03*
X175260Y279400D03*
X208280Y378460D03*
X208280Y213360D03*
X208280Y345440D03*
X208280Y312420D03*
X208280Y279400D03*
X208280Y246380D03*
D29*
X1028637Y440690D02*
X1054164Y440690D01*
X1054164Y478790D02*
X1028637Y478790D01*
X995744Y478790D02*
X970217Y478790D01*
X970217Y440690D02*
X995744Y440690D01*
D33*
X444500Y546100D03*
X444500Y533400D03*
X431800Y482600D03*
X419100Y482600D03*
X406400Y482600D03*
X406400Y660400D03*
X419100Y660400D03*
X431800Y660400D03*
X444500Y723900D03*
X444500Y711200D03*
X647700Y533400D03*
X101600Y589280D03*
X177800Y546100D03*
X215900Y863600D03*
X228600Y863600D03*
X50800Y774700D03*
X317500Y596900D03*
X317500Y571500D03*
X1069340Y635000D03*
X1069340Y596900D03*
X673100Y822960D03*
X830580Y609600D03*
X406400Y431800D03*
X431800Y431800D03*
X406400Y609600D03*
X431800Y609600D03*
X419100Y609600D03*
X355600Y635000D03*
X342900Y635000D03*
X393700Y546100D03*
X393700Y533400D03*
X393700Y520700D03*
X939800Y584200D03*
X759460Y571500D03*
X744220Y640080D03*
X444500Y673100D03*
X469900Y711200D03*
X444500Y495300D03*
X469900Y533400D03*
X393700Y723900D03*
X393700Y711200D03*
X393700Y698500D03*
X965200Y609600D03*
X965200Y563880D03*
X759460Y622300D03*
X495300Y673100D03*
X495300Y495300D03*
X558800Y495300D03*
X266700Y546100D03*
X1191260Y304800D03*
X734060Y378460D03*
X266700Y520700D03*
X1191260Y330200D03*
X734060Y388620D03*
X152400Y762000D03*
X152400Y774700D03*
X203200Y635000D03*
X215900Y622300D03*
X127000Y736600D03*
X114300Y736600D03*
X127000Y660400D03*
X165100Y647700D03*
X419100Y431800D03*
X1041400Y419100D03*
X1071880Y330200D03*
X292100Y495300D03*
X734060Y398780D03*
X960120Y683260D03*
X1066800Y762000D03*
X899160Y660400D03*
X998220Y683260D03*
X1066800Y736600D03*
X899160Y635000D03*
X777240Y762000D03*
X777240Y736600D03*
X777240Y711200D03*
X899160Y762000D03*
X899160Y736600D03*
X899160Y711200D03*
X1069340Y228600D03*
X1071880Y254000D03*
X1071880Y279400D03*
X1071880Y304800D03*
X1069340Y203200D03*
X1069340Y177800D03*
X1068610Y152400D03*
X777240Y685800D03*
X777240Y177800D03*
X776510Y152400D03*
X777240Y660400D03*
X899160Y685800D03*
X777240Y330200D03*
X777240Y304800D03*
X777240Y279400D03*
X777240Y254000D03*
X777240Y228600D03*
X777240Y203200D03*
X1144524Y139700D03*
X1137412Y167132D03*
X1130300Y190500D03*
X1132840Y215900D03*
M02*
