G04 EAGLE Gerber RS-274X export*
G75*
%MOMM*%
%FSLAX34Y34*%
%LPD*%
%INTop Copper*%
%IPPOS*%
%AMOC8*
5,1,8,0,0,1.08239X$1,22.5*%
G01*
%ADD10R,1.300000X1.500000*%
%ADD11R,1.500000X1.300000*%
%ADD12R,2.500000X4.000000*%
%ADD13R,1.400000X1.000000*%
%ADD14R,2.540000X1.000000*%
%ADD15R,6.200000X5.400000*%
%ADD16R,1.600000X1.000000*%
%ADD17C,1.676400*%
%ADD18R,1.050000X0.600000*%
%ADD19P,6.511658X8X202.500000*%
%ADD20R,1.200000X0.400000*%
%ADD21C,1.408000*%
%ADD22C,1.320800*%
%ADD23R,1.408000X1.408000*%
%ADD24C,4.116000*%
%ADD25R,1.800000X3.200000*%
%ADD26C,1.790700*%
%ADD27C,2.400300*%
%ADD28C,2.552700*%
%ADD29R,3.750000X1.000000*%
%ADD30R,0.600000X0.500000*%
%ADD31P,2.749271X8X22.500000*%
%ADD32C,0.756400*%
%ADD33C,0.508000*%
%ADD34C,0.152400*%
%ADD35C,0.304800*%
%ADD36C,1.016000*%
%ADD37C,0.254000*%
%ADD38C,0.609600*%
%ADD39C,0.200000*%


D10*
X409600Y698500D03*
X428600Y698500D03*
X409600Y723900D03*
X428600Y723900D03*
X517500Y635000D03*
X498500Y635000D03*
D11*
X406400Y447700D03*
X406400Y466700D03*
X431800Y447700D03*
X431800Y466700D03*
D10*
X504800Y533400D03*
X485800Y533400D03*
X409600Y520700D03*
X428600Y520700D03*
X409600Y546100D03*
X428600Y546100D03*
X517500Y457200D03*
X498500Y457200D03*
D12*
X254000Y760100D03*
X254000Y840100D03*
D11*
X406400Y625500D03*
X406400Y644500D03*
X431800Y625500D03*
X431800Y644500D03*
D10*
X504800Y711200D03*
X485800Y711200D03*
D13*
X99900Y736600D03*
X77900Y727100D03*
X77900Y746100D03*
D14*
X368300Y674300D03*
X368300Y697300D03*
X368300Y496500D03*
X368300Y519500D03*
D15*
X253600Y685800D03*
D16*
X180600Y708600D03*
X180600Y663000D03*
D11*
X508000Y682600D03*
X508000Y663600D03*
X50800Y758800D03*
X50800Y739800D03*
X533400Y485800D03*
X533400Y504800D03*
D10*
X498500Y431800D03*
X517500Y431800D03*
D11*
X508000Y504800D03*
X508000Y485800D03*
X76200Y663600D03*
X76200Y682600D03*
X101600Y682600D03*
X101600Y663600D03*
X533400Y663600D03*
X533400Y682600D03*
D10*
X498500Y609600D03*
X517500Y609600D03*
D17*
X71882Y551180D02*
X55118Y551180D01*
X55118Y589280D02*
X71882Y589280D01*
X71882Y627380D02*
X55118Y627380D01*
D18*
X456400Y682600D03*
X456400Y673100D03*
X456400Y663600D03*
X483400Y673100D03*
X483400Y663600D03*
X483400Y682600D03*
X456400Y504800D03*
X456400Y495300D03*
X456400Y485800D03*
X483400Y495300D03*
X483400Y485800D03*
X483400Y504800D03*
D19*
X132800Y825500D03*
X62800Y825500D03*
D20*
X228300Y568550D03*
X228300Y562050D03*
X228300Y555550D03*
X228300Y549050D03*
X254300Y549050D03*
X254300Y555550D03*
X254300Y562050D03*
X254300Y568550D03*
D10*
X301600Y571500D03*
X282600Y571500D03*
X301600Y596900D03*
X282600Y596900D03*
X282600Y520700D03*
X301600Y520700D03*
X282600Y546100D03*
X301600Y546100D03*
D21*
X266700Y479900D03*
X266700Y459900D03*
D11*
X203200Y542900D03*
X203200Y523900D03*
D22*
X577596Y596900D02*
X590804Y596900D01*
X590804Y571500D02*
X577596Y571500D01*
X653796Y571500D02*
X667004Y571500D01*
X667004Y596900D02*
X653796Y596900D01*
D21*
X450200Y852400D03*
X477600Y852400D03*
X505000Y852400D03*
X532400Y852400D03*
X559800Y852400D03*
X587200Y852400D03*
X614600Y852400D03*
D23*
X642000Y852400D03*
D21*
X463900Y824000D03*
X491300Y824000D03*
X518700Y824000D03*
X546100Y824000D03*
X573500Y824000D03*
X600900Y824000D03*
X628300Y824000D03*
D24*
X379500Y838200D03*
X712700Y838200D03*
D25*
X162500Y596900D03*
X218500Y596900D03*
D26*
X408940Y131064D03*
X436626Y131064D03*
X464312Y131064D03*
X491998Y131064D03*
X519684Y131064D03*
X547370Y131064D03*
X575056Y131064D03*
X381254Y131064D03*
X353568Y131064D03*
X325882Y131064D03*
X298196Y131064D03*
X270510Y131064D03*
X242824Y131064D03*
X561213Y102616D03*
X533527Y102616D03*
X505841Y102616D03*
X478155Y102616D03*
X450469Y102616D03*
X422783Y102616D03*
X395097Y102616D03*
X367411Y102616D03*
X339725Y102616D03*
X312039Y102616D03*
X284353Y102616D03*
X256667Y102616D03*
D27*
X173736Y116840D03*
X644144Y116840D03*
D28*
X961390Y767017D02*
X961390Y792544D01*
X999490Y792544D02*
X999490Y767017D01*
D29*
X804450Y330200D03*
X871950Y330200D03*
X804450Y304800D03*
X871950Y304800D03*
X804450Y279400D03*
X871950Y279400D03*
X804450Y254000D03*
X871950Y254000D03*
X804450Y228600D03*
X871950Y228600D03*
X804450Y203200D03*
X871950Y203200D03*
X804450Y177800D03*
X871950Y177800D03*
X804450Y152400D03*
X871950Y152400D03*
X804450Y762000D03*
X871950Y762000D03*
X804450Y736600D03*
X871950Y736600D03*
X804450Y711200D03*
X871950Y711200D03*
X804450Y685800D03*
X871950Y685800D03*
X804450Y660400D03*
X871950Y660400D03*
X804450Y635000D03*
X871950Y635000D03*
X804450Y609600D03*
X871950Y609600D03*
X804450Y584200D03*
X871950Y584200D03*
X1096550Y762000D03*
X1164050Y762000D03*
X1096550Y736600D03*
X1164050Y736600D03*
X1096550Y711200D03*
X1164050Y711200D03*
X1096550Y685800D03*
X1164050Y685800D03*
X1096550Y660400D03*
X1164050Y660400D03*
X1096550Y635000D03*
X1164050Y635000D03*
X1096550Y609600D03*
X1164050Y609600D03*
X1096550Y584200D03*
X1164050Y584200D03*
X1096550Y330200D03*
X1164050Y330200D03*
X1096550Y304800D03*
X1164050Y304800D03*
X1096550Y279400D03*
X1164050Y279400D03*
X1096550Y254000D03*
X1164050Y254000D03*
X1096550Y228600D03*
X1164050Y228600D03*
X1096550Y203200D03*
X1164050Y203200D03*
X1096550Y177800D03*
X1164050Y177800D03*
X1096550Y152400D03*
X1164050Y152400D03*
D30*
X1044020Y622300D03*
X1054020Y622300D03*
X1044020Y596900D03*
X1054020Y596900D03*
D31*
X43180Y411480D03*
X43180Y378460D03*
X43180Y345440D03*
X43180Y312420D03*
X43180Y279400D03*
X43180Y246380D03*
X76200Y411480D03*
X76200Y378460D03*
X76200Y345440D03*
X76200Y312420D03*
X109220Y312420D03*
X76200Y279400D03*
X109220Y411480D03*
X76200Y246380D03*
X109220Y378460D03*
X76200Y213360D03*
X109220Y345440D03*
X109220Y213360D03*
X109220Y279400D03*
X142240Y411480D03*
X109220Y246380D03*
X142240Y378460D03*
X43180Y213360D03*
X142240Y345440D03*
X142240Y312420D03*
X142240Y279400D03*
X142240Y246380D03*
X142240Y213360D03*
X175260Y246380D03*
X175260Y378460D03*
X175260Y213360D03*
X175260Y345440D03*
X208280Y411480D03*
X175260Y312420D03*
X175260Y411480D03*
X175260Y279400D03*
X208280Y378460D03*
X208280Y213360D03*
X208280Y345440D03*
X208280Y312420D03*
X208280Y279400D03*
X208280Y246380D03*
D28*
X1028637Y440690D02*
X1054164Y440690D01*
X1054164Y478790D02*
X1028637Y478790D01*
X995744Y478790D02*
X970217Y478790D01*
X970217Y440690D02*
X995744Y440690D01*
D32*
X444500Y546100D03*
X444500Y533400D03*
X431800Y482600D03*
X419100Y482600D03*
X406400Y482600D03*
D33*
X456400Y504800D02*
X456400Y521500D01*
X444500Y533400D01*
X508000Y504800D02*
X520700Y517500D01*
X520700Y546100D01*
X508000Y558800D01*
X441300Y558800D02*
X428600Y546100D01*
X441300Y558800D02*
X508000Y558800D01*
X406400Y482600D02*
X406400Y466700D01*
X431800Y466700D02*
X431800Y482600D01*
D34*
X431800Y520700D02*
X428600Y520700D01*
D33*
X431800Y520700D02*
X444500Y533400D01*
X444500Y546100D02*
X428600Y546100D01*
D32*
X406400Y660400D03*
X419100Y660400D03*
X431800Y660400D03*
X444500Y723900D03*
X444500Y711200D03*
D33*
X444500Y723900D02*
X428600Y723900D01*
X441300Y711200D02*
X428600Y698500D01*
X441300Y711200D02*
X444500Y711200D01*
X456400Y699300D02*
X456400Y682600D01*
X456400Y699300D02*
X444500Y711200D01*
X406400Y660400D02*
X406400Y644500D01*
X431800Y644500D02*
X431800Y660400D01*
X508000Y682600D02*
X520700Y695300D01*
X520700Y723900D01*
X508000Y736600D01*
X457200Y736600D01*
X444500Y723900D01*
D35*
X228300Y555550D02*
X215834Y555550D01*
X203200Y542900D01*
D33*
X660400Y571500D02*
X660400Y596900D01*
D32*
X647700Y533400D03*
D33*
X660400Y546100D02*
X660400Y571500D01*
X660400Y546100D02*
X647700Y533400D01*
X101600Y589280D02*
X63500Y589280D01*
D35*
X181000Y542900D02*
X203200Y542900D01*
X181000Y542900D02*
X177800Y546100D01*
D32*
X101600Y589280D03*
X177800Y546100D03*
D36*
X50800Y758800D02*
X50800Y774700D01*
X50800Y813500D01*
X62800Y825500D01*
X230500Y863600D02*
X254000Y840100D01*
X230500Y863600D02*
X228600Y863600D01*
D32*
X215900Y863600D03*
D36*
X228600Y863600D01*
D32*
X228600Y863600D03*
X50800Y774700D03*
X317500Y596900D03*
X317500Y571500D03*
D35*
X317500Y596900D02*
X301600Y596900D01*
D37*
X1069340Y635000D02*
X1096550Y635000D01*
D32*
X1069340Y635000D03*
D35*
X317500Y571500D02*
X301600Y571500D01*
D38*
X1054020Y622300D02*
X1059180Y622300D01*
X1069340Y632460D01*
D37*
X1069340Y635000D01*
D38*
X1069340Y596900D02*
X1054020Y596900D01*
D32*
X1069340Y596900D03*
D37*
X804450Y584200D02*
X804450Y609600D01*
X1096550Y635000D02*
X1096550Y660400D01*
D38*
X658900Y852400D02*
X642000Y852400D01*
X673100Y838200D02*
X673100Y822960D01*
D32*
X673100Y822960D03*
D38*
X673100Y838200D02*
X658900Y852400D01*
D32*
X830580Y609600D03*
D35*
X804450Y609600D01*
D33*
X406400Y447700D02*
X406400Y431800D01*
D34*
X431800Y444500D02*
X431800Y447700D01*
D32*
X406400Y431800D03*
X431800Y431800D03*
D33*
X431800Y444500D01*
D32*
X406400Y609600D03*
X431800Y609600D03*
X419100Y609600D03*
D33*
X456400Y637400D02*
X456400Y663600D01*
X456400Y637400D02*
X444500Y625500D01*
X431800Y625500D01*
X431800Y609600D01*
X406400Y609600D02*
X406400Y625500D01*
X431800Y447700D02*
X447700Y447700D01*
X457200Y457200D01*
X457200Y485000D01*
X456400Y485800D01*
D36*
X253600Y685800D02*
X253600Y759700D01*
X254000Y760100D01*
X253600Y685800D02*
X266700Y685800D01*
X317500Y635000D01*
X342900Y635000D01*
D32*
X355600Y635000D03*
D36*
X342900Y635000D01*
D32*
X342900Y635000D03*
X393700Y546100D03*
X393700Y533400D03*
X393700Y520700D03*
D33*
X393700Y546100D02*
X409600Y546100D01*
X409600Y520700D02*
X393700Y520700D01*
X382200Y533400D02*
X368300Y519500D01*
X382200Y533400D02*
X393700Y533400D01*
D34*
X533400Y504800D02*
X536448Y507848D01*
D33*
X413076Y574548D02*
X393700Y555172D01*
X393700Y546100D01*
X533400Y552196D02*
X533400Y504800D01*
X533400Y552196D02*
X511048Y574548D01*
X413076Y574548D01*
D36*
X871950Y584200D02*
X939800Y584200D01*
X1021080Y584200D01*
X1087120Y584200D01*
X1096550Y584200D01*
D32*
X939800Y584200D03*
D38*
X1033780Y596900D02*
X1044020Y596900D01*
X1033780Y596900D02*
X1021080Y584200D01*
D35*
X1041400Y538480D02*
X1041400Y478790D01*
X1041400Y538480D02*
X1087120Y584200D01*
D38*
X871950Y584200D02*
X848360Y584200D01*
X835660Y571500D02*
X759460Y571500D01*
D32*
X759460Y571500D03*
D38*
X835660Y571500D02*
X848360Y584200D01*
D32*
X744220Y640080D03*
D38*
X744220Y586740D01*
X759460Y571500D01*
D35*
X517500Y609600D02*
X517500Y635000D01*
X533400Y650900D01*
X533400Y663600D01*
X498500Y635000D02*
X498500Y609600D01*
X498500Y635000D02*
X498500Y648500D01*
X483400Y663600D01*
D34*
X504800Y704000D02*
X504800Y711200D01*
D35*
X504800Y704000D02*
X483400Y682600D01*
D32*
X444500Y673100D03*
X469900Y711200D03*
D33*
X485800Y711200D01*
X456400Y673100D02*
X444500Y673100D01*
D34*
X369500Y673100D02*
X368300Y674300D01*
D33*
X369500Y673100D02*
X444500Y673100D01*
D35*
X533400Y473100D02*
X517500Y457200D01*
X533400Y473100D02*
X533400Y485800D01*
X517500Y457200D02*
X517500Y431800D01*
X498500Y457200D02*
X498500Y476300D01*
X508000Y485800D01*
X498500Y457200D02*
X498500Y431800D01*
X508000Y485800D02*
X483400Y485800D01*
X495300Y523900D02*
X504800Y533400D01*
X495300Y508000D02*
X492100Y504800D01*
X483400Y504800D01*
X495300Y508000D02*
X495300Y523900D01*
D33*
X456400Y495300D02*
X444500Y495300D01*
X369500Y495300D01*
D34*
X368300Y496500D01*
D32*
X444500Y495300D03*
X469900Y533400D03*
D33*
X485800Y533400D01*
D32*
X393700Y723900D03*
X393700Y711200D03*
X393700Y698500D03*
D33*
X382200Y711200D02*
X368300Y697300D01*
X382200Y711200D02*
X393700Y711200D01*
X393700Y698500D02*
X409600Y698500D01*
X409600Y723900D02*
X393700Y723900D01*
X533400Y723900D02*
X533400Y682600D01*
X533400Y723900D02*
X508000Y749300D01*
X406400Y749300D02*
X393700Y736600D01*
X393700Y723900D01*
X406400Y749300D02*
X508000Y749300D01*
D36*
X871950Y609600D02*
X965200Y609600D01*
X1021080Y609600D01*
X1096550Y609600D01*
D38*
X1044020Y622300D02*
X1033780Y622300D01*
X1021080Y609600D01*
D32*
X965200Y609600D03*
D35*
X982980Y546100D02*
X982980Y478790D01*
X982980Y546100D02*
X965200Y563880D01*
D32*
X965200Y563880D03*
D38*
X871950Y609600D02*
X848360Y609600D01*
X835660Y622300D02*
X759460Y622300D01*
D32*
X759460Y622300D03*
D38*
X835660Y622300D02*
X848360Y609600D01*
D32*
X495300Y673100D03*
D39*
X483400Y673100D01*
D32*
X495300Y495300D03*
D35*
X483400Y495300D01*
D32*
X558800Y495300D03*
D35*
X584200Y520700D01*
X584200Y571500D01*
X254300Y568550D02*
X254300Y581300D01*
X269900Y596900D01*
X282600Y596900D01*
X273150Y562050D02*
X254300Y562050D01*
X273150Y562050D02*
X282600Y571500D01*
D32*
X266700Y546100D03*
D39*
X259370Y555550D02*
X254300Y555550D01*
D35*
X266700Y546100D02*
X282600Y546100D01*
X263348Y549452D02*
X263348Y552313D01*
X263348Y549452D02*
X266700Y546100D01*
X260111Y555550D02*
X254300Y555550D01*
X260111Y555550D02*
X263348Y552313D01*
D32*
X1191260Y304800D03*
D35*
X1164050Y304800D02*
X1156669Y304800D01*
X1164050Y304800D02*
X1191260Y304800D01*
D32*
X734060Y378460D03*
D37*
X1083009Y378460D02*
X1156669Y304800D01*
X1083009Y378460D02*
X734060Y378460D01*
D35*
X282600Y520700D02*
X266700Y520700D01*
X266700Y523900D01*
X254300Y536300D01*
X254300Y549050D01*
X279400Y520700D02*
X282600Y520700D01*
D32*
X266700Y520700D03*
X1191260Y330200D03*
D35*
X1164050Y330200D01*
D32*
X734060Y388620D03*
D37*
X1098010Y388620D01*
X1156430Y330200D02*
X1164050Y330200D01*
X1156430Y330200D02*
X1098010Y388620D01*
D35*
X228300Y568550D02*
X220625Y576225D01*
X218500Y578350D01*
X218500Y596900D01*
D32*
X152400Y762000D03*
X152400Y774700D03*
X203200Y635000D03*
X215900Y622300D03*
D36*
X152400Y805900D02*
X132800Y825500D01*
X152400Y805900D02*
X152400Y774700D01*
X152400Y762000D01*
X215900Y599500D02*
X218500Y596900D01*
X215900Y599500D02*
X215900Y622300D01*
X203200Y635000D01*
D35*
X197350Y562050D02*
X228300Y562050D01*
X197350Y562050D02*
X162500Y596900D01*
D36*
X165100Y599500D01*
X165100Y647500D02*
X180600Y663000D01*
X165100Y647500D02*
X165100Y599500D01*
D32*
X127000Y736600D03*
X114300Y736600D03*
D33*
X99900Y736600D01*
X114300Y736600D02*
X127000Y736600D01*
D36*
X123800Y663600D02*
X101600Y663600D01*
X123800Y663600D02*
X127000Y660400D01*
D32*
X127000Y660400D03*
X165100Y647700D03*
D33*
X71600Y739800D02*
X50800Y739800D01*
X71600Y739800D02*
X77900Y746100D01*
X76200Y663600D02*
X76200Y640080D01*
X63500Y627380D01*
D34*
X101600Y680833D02*
X101600Y682600D01*
D33*
X127600Y708600D01*
X180600Y708600D01*
X101600Y682600D02*
X76200Y682600D01*
D32*
X419100Y431800D03*
D35*
X228300Y549050D02*
X203200Y523950D01*
D39*
X203200Y523900D01*
D35*
X301600Y520700D02*
X301600Y546100D01*
X301600Y520700D02*
X304800Y517500D01*
X304800Y508000D01*
X292100Y495300D01*
X215240Y523900D02*
X203200Y523900D01*
X243840Y495300D02*
X292100Y495300D01*
X243840Y495300D02*
X215240Y523900D01*
X1041400Y440690D02*
X1041400Y419100D01*
D32*
X1041400Y419100D03*
D35*
X1071880Y330200D02*
X1096550Y330200D01*
D32*
X1071880Y330200D03*
X292100Y495300D03*
X734060Y398780D03*
D37*
X1021080Y398780D02*
X1041400Y419100D01*
X1021080Y398780D02*
X734060Y398780D01*
D35*
X871950Y660400D02*
X899160Y660400D01*
X937260Y660400D01*
X960120Y683260D01*
D32*
X960120Y683260D03*
X1066800Y762000D03*
D37*
X1096550Y762000D01*
D35*
X961390Y779780D02*
X961390Y684530D01*
D37*
X960120Y683260D01*
D32*
X899160Y660400D03*
D35*
X629880Y795020D02*
X600900Y824000D01*
X946150Y795020D02*
X961390Y779780D01*
X946150Y795020D02*
X629880Y795020D01*
X871950Y635000D02*
X899160Y635000D01*
X949960Y635000D01*
X998220Y683260D01*
D32*
X998220Y683260D03*
X1066800Y736600D03*
D37*
X1096550Y736600D01*
D35*
X999490Y779780D02*
X999490Y684530D01*
D37*
X998220Y683260D01*
D32*
X899160Y635000D03*
D35*
X649660Y802640D02*
X628300Y824000D01*
X922020Y802640D02*
X944880Y825500D01*
X985520Y825500D01*
X1000760Y810260D01*
X1000760Y781050D01*
D37*
X999490Y779780D01*
D35*
X922020Y802640D02*
X649660Y802640D01*
D37*
X777240Y762000D02*
X804450Y762000D01*
X777240Y762000D02*
X617720Y762000D01*
X573500Y806220D01*
X573500Y824000D01*
D32*
X777240Y762000D03*
D37*
X777240Y736600D02*
X804450Y736600D01*
X777240Y736600D02*
X620800Y736600D01*
X546100Y811300D01*
X546100Y824000D01*
D32*
X777240Y736600D03*
D37*
X777240Y711200D02*
X804450Y711200D01*
X777240Y711200D02*
X623880Y711200D01*
X518700Y816380D01*
X518700Y824000D01*
D32*
X777240Y711200D03*
D37*
X858520Y762000D02*
X871950Y762000D01*
X615973Y774700D02*
X587200Y803473D01*
X587200Y852400D01*
X845820Y774700D02*
X858520Y762000D01*
X845820Y774700D02*
X615973Y774700D01*
D32*
X899160Y762000D03*
D37*
X871950Y762000D01*
X871950Y736600D02*
X858520Y736600D01*
X845820Y749300D01*
X619760Y749300D01*
X559800Y809260D01*
X559800Y852400D01*
D32*
X899160Y736600D03*
D37*
X871950Y736600D01*
X871950Y711200D02*
X858520Y711200D01*
X845820Y723900D02*
X622300Y723900D01*
X532400Y813800D01*
X532400Y852400D01*
X845820Y723900D02*
X858520Y711200D01*
D32*
X899160Y711200D03*
D37*
X871950Y711200D01*
X1069340Y228600D02*
X1096550Y228600D01*
X1069340Y228600D02*
X1059180Y228600D01*
X929640Y99060D01*
X767080Y99060D02*
X714756Y151384D01*
X595376Y151384D01*
X575056Y131064D01*
X767080Y99060D02*
X929640Y99060D01*
D32*
X1069340Y228600D03*
D37*
X1071880Y254000D02*
X1096550Y254000D01*
X1071880Y254000D02*
X924560Y106680D01*
X769620Y106680D02*
X716280Y160020D01*
X576326Y160020D01*
X547370Y131064D01*
X769620Y106680D02*
X924560Y106680D01*
D32*
X1071880Y254000D03*
D37*
X1071880Y279400D02*
X1096550Y279400D01*
X1071880Y279400D02*
X1054100Y261620D01*
X1054100Y248920D01*
X919480Y114300D01*
X772160Y114300D02*
X718820Y167640D01*
X556260Y167640D01*
X519684Y131064D01*
X772160Y114300D02*
X919480Y114300D01*
D32*
X1071880Y279400D03*
D37*
X1071880Y304800D02*
X1096550Y304800D01*
X1071880Y304800D02*
X1046480Y279400D01*
X1046480Y254000D01*
X914400Y121920D01*
X774700Y121920D01*
X721360Y175260D01*
X536194Y175260D01*
X491998Y131064D01*
D32*
X1071880Y304800D03*
D37*
X1069340Y203200D02*
X1096550Y203200D01*
X1069340Y203200D02*
X1054100Y187960D01*
X1054100Y119380D01*
X1018540Y83820D01*
X580009Y83820D01*
X561213Y102616D01*
D32*
X1069340Y203200D03*
D37*
X1069340Y177800D02*
X1096550Y177800D01*
X1069340Y177800D02*
X1061720Y170180D01*
X1061720Y116840D01*
X1021080Y76200D01*
X559943Y76200D01*
X533527Y102616D01*
D32*
X1069340Y177800D03*
D37*
X1068610Y152400D02*
X1096550Y152400D01*
X1068610Y152400D02*
X1068610Y113570D01*
X1023620Y68580D01*
X539877Y68580D01*
X505841Y102616D01*
D32*
X1068610Y152400D03*
D37*
X804450Y685800D02*
X777240Y685800D01*
X624420Y685800D01*
X491300Y818920D01*
X491300Y824000D01*
D32*
X777240Y685800D03*
D37*
X777240Y177800D02*
X804450Y177800D01*
X777240Y177800D02*
X776510Y177800D01*
X758730Y195580D01*
X473456Y195580D01*
X408940Y131064D01*
D32*
X777240Y177800D03*
D37*
X776510Y152400D02*
X804450Y152400D01*
X776510Y152400D02*
X740379Y188532D01*
X494094Y188532D01*
X436626Y131064D01*
D32*
X776510Y152400D03*
X777240Y660400D03*
D37*
X804450Y660400D01*
X627500Y660400D02*
X463900Y824000D01*
X627500Y660400D02*
X777240Y660400D01*
X477600Y837700D02*
X477600Y852400D01*
X477600Y837700D02*
X463900Y824000D01*
X464312Y116459D02*
X478155Y102616D01*
X464312Y116459D02*
X464312Y131064D01*
X858520Y685800D02*
X871950Y685800D01*
X845820Y698500D02*
X624840Y698500D01*
X505000Y818340D01*
X505000Y852400D01*
X845820Y698500D02*
X858520Y685800D01*
D32*
X899160Y685800D03*
D37*
X871950Y685800D01*
X804450Y330200D02*
X777240Y330200D01*
X731520Y330200D01*
X642620Y241300D01*
X353060Y241300D02*
X242824Y131064D01*
X353060Y241300D02*
X642620Y241300D01*
D32*
X777240Y330200D03*
D37*
X777240Y304800D02*
X804450Y304800D01*
X777240Y304800D02*
X716280Y304800D01*
X645160Y233680D01*
X373380Y233680D01*
X270764Y131064D01*
X270510Y131064D01*
D32*
X777240Y304800D03*
D37*
X777240Y279400D02*
X804450Y279400D01*
X777240Y279400D02*
X701040Y279400D01*
X647700Y226060D01*
X393192Y226060D02*
X298196Y131064D01*
X393192Y226060D02*
X647700Y226060D01*
D32*
X777240Y279400D03*
D37*
X651923Y219456D02*
X414274Y219456D01*
X325882Y131064D01*
X651923Y219456D02*
X686467Y254000D01*
X777240Y254000D02*
X804450Y254000D01*
X777240Y254000D02*
X686467Y254000D01*
D32*
X777240Y254000D03*
D37*
X776035Y228600D02*
X757747Y210312D01*
X432816Y210312D02*
X353568Y131064D01*
X432816Y210312D02*
X757747Y210312D01*
X777240Y228600D02*
X804450Y228600D01*
X777240Y228600D02*
X776035Y228600D01*
D32*
X777240Y228600D03*
D37*
X453390Y203200D02*
X381254Y131064D01*
X777240Y203200D02*
X804450Y203200D01*
X777240Y203200D02*
X453390Y203200D01*
D32*
X777240Y203200D03*
D35*
X1153890Y152400D02*
X1164050Y152400D01*
X1153890Y152400D02*
X1144524Y143034D01*
X1144524Y139700D01*
X1144524Y87652D01*
X1095988Y39116D01*
X430911Y39116D01*
X367411Y102616D01*
D32*
X1144524Y139700D03*
D35*
X1148080Y177800D02*
X1164050Y177800D01*
X1137412Y92086D02*
X1091554Y46228D01*
X452385Y46228D01*
X1137412Y167132D02*
X1148080Y177800D01*
X1137412Y167132D02*
X1137412Y92086D01*
X452385Y46228D02*
X395997Y102616D01*
X395097Y102616D01*
D32*
X1137412Y167132D03*
D35*
X1143000Y203200D02*
X1164050Y203200D01*
X1143000Y203200D02*
X1130300Y190500D01*
X1130300Y96520D02*
X1087120Y53340D01*
X472059Y53340D01*
X422783Y102616D01*
X1130300Y96520D02*
X1130300Y190500D01*
D32*
X1130300Y190500D03*
D35*
X1145540Y228600D02*
X1164050Y228600D01*
X1145540Y228600D02*
X1132840Y215900D01*
X1122680Y205740D01*
X1122680Y101600D01*
X1082040Y60960D01*
X492125Y60960D02*
X450469Y102616D01*
X492125Y60960D02*
X1082040Y60960D01*
D32*
X1132840Y215900D03*
M02*
