G04 EAGLE Gerber RS-274X export*
G75*
%MOMM*%
%FSLAX34Y34*%
%LPD*%
%INSolderpaste Bottom*%
%IPPOS*%
%AMOC8*
5,1,8,0,0,1.08239X$1,22.5*%
G01*
%ADD10R,0.600000X0.500000*%


D10*
X876220Y622300D03*
X866220Y622300D03*
X876220Y647700D03*
X866220Y647700D03*
X1092280Y749300D03*
X1102280Y749300D03*
X1092280Y723900D03*
X1102280Y723900D03*
X1089740Y190500D03*
X1099740Y190500D03*
X1089740Y165100D03*
X1099740Y165100D03*
X1089740Y137160D03*
X1099740Y137160D03*
X1170860Y317500D03*
X1160860Y317500D03*
X1170860Y292100D03*
X1160860Y292100D03*
X1089740Y317500D03*
X1099740Y317500D03*
X1089740Y292100D03*
X1099740Y292100D03*
X1089740Y266700D03*
X1099740Y266700D03*
X1089740Y215900D03*
X1099740Y215900D03*
X1089740Y241300D03*
X1099740Y241300D03*
X800180Y647700D03*
X810180Y647700D03*
X800180Y749300D03*
X810180Y749300D03*
X800180Y723900D03*
X810180Y723900D03*
X876220Y749300D03*
X866220Y749300D03*
X876220Y723900D03*
X866220Y723900D03*
X800180Y673100D03*
X810180Y673100D03*
X876220Y698500D03*
X866220Y698500D03*
X876220Y673100D03*
X866220Y673100D03*
X800180Y317500D03*
X810180Y317500D03*
X800180Y292100D03*
X810180Y292100D03*
X800180Y266700D03*
X810180Y266700D03*
X800180Y241300D03*
X810180Y241300D03*
X800180Y215900D03*
X810180Y215900D03*
X800180Y190500D03*
X810180Y190500D03*
X800180Y165100D03*
X810180Y165100D03*
X800180Y139700D03*
X810180Y139700D03*
X800180Y698500D03*
X810180Y698500D03*
X1158320Y215900D03*
X1168320Y215900D03*
X1158320Y190500D03*
X1168320Y190500D03*
X1158320Y165100D03*
X1168320Y165100D03*
X1158320Y139700D03*
X1168320Y139700D03*
M02*
