G04 EAGLE Gerber RS-274X export*
G75*
%MOMM*%
%FSLAX34Y34*%
%LPD*%
%INSolderpaste Top*%
%IPPOS*%
%AMOC8*
5,1,8,0,0,1.08239X$1,22.5*%
G01*
%ADD10R,1.300000X1.500000*%
%ADD11R,1.500000X1.300000*%
%ADD12R,2.500000X4.000000*%
%ADD13R,1.400000X1.000000*%
%ADD14R,2.540000X1.000000*%
%ADD15R,6.200000X5.400000*%
%ADD16R,1.600000X1.000000*%
%ADD17R,1.050000X0.600000*%
%ADD18R,1.200000X0.400000*%
%ADD19R,1.800000X3.200000*%
%ADD20R,3.750000X1.000000*%
%ADD21R,0.600000X0.500000*%


D10*
X409600Y698500D03*
X428600Y698500D03*
X409600Y723900D03*
X428600Y723900D03*
X517500Y635000D03*
X498500Y635000D03*
D11*
X406400Y447700D03*
X406400Y466700D03*
X431800Y447700D03*
X431800Y466700D03*
D10*
X504800Y533400D03*
X485800Y533400D03*
X409600Y520700D03*
X428600Y520700D03*
X409600Y546100D03*
X428600Y546100D03*
X517500Y457200D03*
X498500Y457200D03*
D12*
X254000Y760100D03*
X254000Y840100D03*
D11*
X406400Y625500D03*
X406400Y644500D03*
X431800Y625500D03*
X431800Y644500D03*
D10*
X504800Y711200D03*
X485800Y711200D03*
D13*
X99900Y736600D03*
X77900Y727100D03*
X77900Y746100D03*
D14*
X368300Y674300D03*
X368300Y697300D03*
X368300Y496500D03*
X368300Y519500D03*
D15*
X253600Y685800D03*
D16*
X180600Y708600D03*
X180600Y663000D03*
D11*
X508000Y682600D03*
X508000Y663600D03*
X50800Y758800D03*
X50800Y739800D03*
X533400Y485800D03*
X533400Y504800D03*
D10*
X498500Y431800D03*
X517500Y431800D03*
D11*
X508000Y504800D03*
X508000Y485800D03*
X76200Y663600D03*
X76200Y682600D03*
X101600Y682600D03*
X101600Y663600D03*
X533400Y663600D03*
X533400Y682600D03*
D10*
X498500Y609600D03*
X517500Y609600D03*
D17*
X456400Y682600D03*
X456400Y673100D03*
X456400Y663600D03*
X483400Y673100D03*
X483400Y663600D03*
X483400Y682600D03*
X456400Y504800D03*
X456400Y495300D03*
X456400Y485800D03*
X483400Y495300D03*
X483400Y485800D03*
X483400Y504800D03*
D18*
X228300Y568550D03*
X228300Y562050D03*
X228300Y555550D03*
X228300Y549050D03*
X254300Y549050D03*
X254300Y555550D03*
X254300Y562050D03*
X254300Y568550D03*
D10*
X301600Y571500D03*
X282600Y571500D03*
X301600Y596900D03*
X282600Y596900D03*
X282600Y520700D03*
X301600Y520700D03*
X282600Y546100D03*
X301600Y546100D03*
D11*
X203200Y542900D03*
X203200Y523900D03*
D19*
X162500Y596900D03*
X218500Y596900D03*
D20*
X804450Y330200D03*
X871950Y330200D03*
X804450Y304800D03*
X871950Y304800D03*
X804450Y279400D03*
X871950Y279400D03*
X804450Y254000D03*
X871950Y254000D03*
X804450Y228600D03*
X871950Y228600D03*
X804450Y203200D03*
X871950Y203200D03*
X804450Y177800D03*
X871950Y177800D03*
X804450Y152400D03*
X871950Y152400D03*
X804450Y762000D03*
X871950Y762000D03*
X804450Y736600D03*
X871950Y736600D03*
X804450Y711200D03*
X871950Y711200D03*
X804450Y685800D03*
X871950Y685800D03*
X804450Y660400D03*
X871950Y660400D03*
X804450Y635000D03*
X871950Y635000D03*
X804450Y609600D03*
X871950Y609600D03*
X804450Y584200D03*
X871950Y584200D03*
X1096550Y762000D03*
X1164050Y762000D03*
X1096550Y736600D03*
X1164050Y736600D03*
X1096550Y711200D03*
X1164050Y711200D03*
X1096550Y685800D03*
X1164050Y685800D03*
X1096550Y660400D03*
X1164050Y660400D03*
X1096550Y635000D03*
X1164050Y635000D03*
X1096550Y609600D03*
X1164050Y609600D03*
X1096550Y584200D03*
X1164050Y584200D03*
X1096550Y330200D03*
X1164050Y330200D03*
X1096550Y304800D03*
X1164050Y304800D03*
X1096550Y279400D03*
X1164050Y279400D03*
X1096550Y254000D03*
X1164050Y254000D03*
X1096550Y228600D03*
X1164050Y228600D03*
X1096550Y203200D03*
X1164050Y203200D03*
X1096550Y177800D03*
X1164050Y177800D03*
X1096550Y152400D03*
X1164050Y152400D03*
D21*
X1044020Y622300D03*
X1054020Y622300D03*
X1044020Y596900D03*
X1054020Y596900D03*
M02*
