G04 EAGLE Gerber RS-274X export*
G75*
%MOMM*%
%FSLAX34Y34*%
%LPD*%
%INSoldermask Top*%
%IPPOS*%
%AMOC8*
5,1,8,0,0,1.08239X$1,22.5*%
G01*
%ADD10R,1.503200X1.703200*%
%ADD11R,1.703200X1.503200*%
%ADD12R,2.703200X4.203200*%
%ADD13R,1.603200X1.203200*%
%ADD14R,2.743200X1.203200*%
%ADD15R,6.403200X5.603200*%
%ADD16R,1.803200X1.203200*%
%ADD17C,1.879600*%
%ADD18R,1.253200X0.803200*%
%ADD19P,6.731600X8X202.500000*%
%ADD20R,1.403200X0.603200*%
%ADD21C,1.611200*%
%ADD22C,1.524000*%
%ADD23R,1.611200X1.611200*%
%ADD24C,4.319200*%
%ADD25R,2.003200X3.403200*%
%ADD26C,1.993900*%
%ADD27C,2.603500*%
%ADD28C,2.755900*%
%ADD29R,3.953200X1.203200*%
%ADD30R,0.803200X0.703200*%
%ADD31R,0.703200X0.803200*%
%ADD32P,2.969212X8X22.500000*%
%ADD33C,0.959600*%


D10*
X409600Y698500D03*
X428600Y698500D03*
X409600Y723900D03*
X428600Y723900D03*
X517500Y635000D03*
X498500Y635000D03*
D11*
X406400Y447700D03*
X406400Y466700D03*
X431800Y447700D03*
X431800Y466700D03*
D10*
X504800Y533400D03*
X485800Y533400D03*
X409600Y520700D03*
X428600Y520700D03*
X409600Y546100D03*
X428600Y546100D03*
X517500Y457200D03*
X498500Y457200D03*
D12*
X254000Y760100D03*
X254000Y840100D03*
D11*
X406400Y625500D03*
X406400Y644500D03*
X431800Y625500D03*
X431800Y644500D03*
D10*
X504800Y711200D03*
X485800Y711200D03*
D13*
X99900Y736600D03*
X77900Y727100D03*
X77900Y746100D03*
D14*
X368300Y674300D03*
X368300Y697300D03*
X368300Y496500D03*
X368300Y519500D03*
D15*
X253600Y685800D03*
D16*
X180600Y708600D03*
X180600Y663000D03*
D11*
X508000Y682600D03*
X508000Y663600D03*
X50800Y758800D03*
X50800Y739800D03*
X533400Y485800D03*
X533400Y504800D03*
D10*
X498500Y431800D03*
X517500Y431800D03*
D11*
X508000Y504800D03*
X508000Y485800D03*
X76200Y663600D03*
X76200Y682600D03*
X101600Y682600D03*
X101600Y663600D03*
X533400Y663600D03*
X533400Y682600D03*
D10*
X498500Y609600D03*
X517500Y609600D03*
D17*
X71882Y533400D02*
X55118Y533400D01*
X55118Y571500D02*
X71882Y571500D01*
X71882Y609600D02*
X55118Y609600D01*
D18*
X456400Y682600D03*
X456400Y673100D03*
X456400Y663600D03*
X483400Y673100D03*
X483400Y663600D03*
X483400Y682600D03*
X456400Y504800D03*
X456400Y495300D03*
X456400Y485800D03*
X483400Y495300D03*
X483400Y485800D03*
X483400Y504800D03*
D19*
X132800Y825500D03*
X62800Y825500D03*
D20*
X228300Y568550D03*
X228300Y562050D03*
X228300Y555550D03*
X228300Y549050D03*
X254300Y549050D03*
X254300Y555550D03*
X254300Y562050D03*
X254300Y568550D03*
D10*
X301600Y571500D03*
X282600Y571500D03*
X301600Y596900D03*
X282600Y596900D03*
X282600Y520700D03*
X301600Y520700D03*
X282600Y546100D03*
X301600Y546100D03*
D21*
X251300Y482600D03*
X231300Y482600D03*
D11*
X203200Y542900D03*
X203200Y523900D03*
D22*
X577596Y596900D02*
X590804Y596900D01*
X590804Y571500D02*
X577596Y571500D01*
X653796Y571500D02*
X667004Y571500D01*
X667004Y596900D02*
X653796Y596900D01*
D21*
X450200Y852400D03*
X477600Y852400D03*
X505000Y852400D03*
X532400Y852400D03*
X559800Y852400D03*
X587200Y852400D03*
X614600Y852400D03*
D23*
X642000Y852400D03*
D21*
X463900Y824000D03*
X491300Y824000D03*
X518700Y824000D03*
X546100Y824000D03*
X573500Y824000D03*
X600900Y824000D03*
X628300Y824000D03*
D24*
X379500Y838200D03*
X712700Y838200D03*
D25*
X162500Y596900D03*
X218500Y596900D03*
D26*
X406400Y141224D03*
X434086Y141224D03*
X461772Y141224D03*
X489458Y141224D03*
X517144Y141224D03*
X544830Y141224D03*
X572516Y141224D03*
X378714Y141224D03*
X351028Y141224D03*
X323342Y141224D03*
X295656Y141224D03*
X267970Y141224D03*
X240284Y141224D03*
X558673Y112776D03*
X530987Y112776D03*
X503301Y112776D03*
X475615Y112776D03*
X447929Y112776D03*
X420243Y112776D03*
X392557Y112776D03*
X364871Y112776D03*
X337185Y112776D03*
X309499Y112776D03*
X281813Y112776D03*
X254127Y112776D03*
D27*
X171196Y127000D03*
X641604Y127000D03*
D28*
X641350Y711137D02*
X641350Y736664D01*
X679450Y736664D02*
X679450Y711137D01*
D29*
X804450Y330200D03*
X871950Y330200D03*
X804450Y304800D03*
X871950Y304800D03*
X804450Y279400D03*
X871950Y279400D03*
X804450Y254000D03*
X871950Y254000D03*
X804450Y228600D03*
X871950Y228600D03*
X804450Y203200D03*
X871950Y203200D03*
X804450Y177800D03*
X871950Y177800D03*
X804450Y152400D03*
X871950Y152400D03*
X804450Y762000D03*
X871950Y762000D03*
X804450Y736600D03*
X871950Y736600D03*
X804450Y711200D03*
X871950Y711200D03*
X804450Y685800D03*
X871950Y685800D03*
X804450Y660400D03*
X871950Y660400D03*
X804450Y635000D03*
X871950Y635000D03*
X804450Y609600D03*
X871950Y609600D03*
X804450Y584200D03*
X871950Y584200D03*
X1096550Y762000D03*
X1164050Y762000D03*
X1096550Y736600D03*
X1164050Y736600D03*
X1096550Y711200D03*
X1164050Y711200D03*
X1096550Y685800D03*
X1164050Y685800D03*
X1096550Y660400D03*
X1164050Y660400D03*
X1096550Y635000D03*
X1164050Y635000D03*
X1096550Y609600D03*
X1164050Y609600D03*
X1096550Y584200D03*
X1164050Y584200D03*
X1096550Y330200D03*
X1164050Y330200D03*
X1096550Y304800D03*
X1164050Y304800D03*
X1096550Y279400D03*
X1164050Y279400D03*
X1096550Y254000D03*
X1164050Y254000D03*
X1096550Y228600D03*
X1164050Y228600D03*
X1096550Y203200D03*
X1164050Y203200D03*
X1096550Y177800D03*
X1164050Y177800D03*
X1096550Y152400D03*
X1164050Y152400D03*
D30*
X744300Y723900D03*
X754300Y723900D03*
X718900Y749300D03*
X728900Y749300D03*
D31*
X762000Y855900D03*
X762000Y845900D03*
D30*
X1059100Y774700D03*
X1049100Y774700D03*
X1059100Y749300D03*
X1049100Y749300D03*
X1011000Y622300D03*
X1021000Y622300D03*
X1011000Y596900D03*
X1021000Y596900D03*
D32*
X43180Y411480D03*
X43180Y378460D03*
X43180Y345440D03*
X43180Y312420D03*
X43180Y279400D03*
X43180Y246380D03*
X76200Y411480D03*
X76200Y378460D03*
X76200Y345440D03*
X76200Y312420D03*
X109220Y312420D03*
X76200Y279400D03*
X109220Y411480D03*
X76200Y246380D03*
X109220Y378460D03*
X76200Y213360D03*
X109220Y345440D03*
X109220Y213360D03*
X109220Y279400D03*
X142240Y411480D03*
X109220Y246380D03*
X142240Y378460D03*
X43180Y213360D03*
X142240Y345440D03*
X142240Y312420D03*
X142240Y279400D03*
X142240Y246380D03*
X142240Y213360D03*
X175260Y246380D03*
X175260Y378460D03*
X175260Y213360D03*
X175260Y345440D03*
X208280Y411480D03*
X175260Y312420D03*
X175260Y411480D03*
X175260Y279400D03*
X208280Y378460D03*
X208280Y213360D03*
X208280Y345440D03*
X208280Y312420D03*
X208280Y279400D03*
X208280Y246380D03*
D28*
X1028637Y440690D02*
X1054164Y440690D01*
X1054164Y478790D02*
X1028637Y478790D01*
X995744Y478790D02*
X970217Y478790D01*
X970217Y440690D02*
X995744Y440690D01*
D33*
X444500Y546100D03*
X444500Y533400D03*
X431800Y482600D03*
X419100Y482600D03*
X406400Y482600D03*
X406400Y660400D03*
X419100Y660400D03*
X431800Y660400D03*
X444500Y723900D03*
X444500Y711200D03*
X647700Y533400D03*
X114300Y571500D03*
X177800Y546100D03*
X215900Y863600D03*
X228600Y863600D03*
X50800Y774700D03*
X317500Y596900D03*
X317500Y571500D03*
X901700Y635000D03*
X901700Y660400D03*
X774700Y635000D03*
X774700Y660400D03*
X1041400Y635000D03*
X1041400Y660400D03*
X673100Y812800D03*
X762000Y723900D03*
X749300Y749300D03*
X762000Y825500D03*
X1028700Y774700D03*
X1028700Y749300D03*
X1041400Y596900D03*
X1130300Y139700D03*
X1130300Y165100D03*
X1130300Y190500D03*
X1128315Y315515D03*
X1130300Y292100D03*
X1130300Y266700D03*
X1130300Y241300D03*
X1130300Y215900D03*
X838200Y330200D03*
X838200Y304800D03*
X838200Y279400D03*
X838200Y139700D03*
X838200Y165100D03*
X838200Y190500D03*
X838200Y215900D03*
X838200Y241300D03*
X982980Y419100D03*
X406400Y431800D03*
X431800Y431800D03*
X406400Y609600D03*
X431800Y609600D03*
X419100Y609600D03*
X355600Y635000D03*
X342900Y635000D03*
X393700Y546100D03*
X393700Y533400D03*
X393700Y520700D03*
X711200Y495300D03*
X711200Y508000D03*
X939800Y584200D03*
X762000Y876300D03*
X444500Y673100D03*
X469900Y711200D03*
X444500Y495300D03*
X469900Y533400D03*
X393700Y723900D03*
X393700Y711200D03*
X393700Y698500D03*
X711200Y673100D03*
X711200Y660400D03*
X965200Y609600D03*
X965200Y563880D03*
X495300Y673100D03*
X495300Y495300D03*
X558800Y495300D03*
X266700Y546100D03*
X368300Y393700D03*
X431800Y330200D03*
X952500Y292100D03*
X1130300Y342900D03*
X1168400Y292100D03*
X381000Y406400D03*
X444500Y342900D03*
X952500Y317500D03*
X1143000Y355600D03*
X266700Y520700D03*
X152400Y762000D03*
X152400Y774700D03*
X203200Y635000D03*
X215900Y622300D03*
X127000Y736600D03*
X114300Y736600D03*
X127000Y660400D03*
X165100Y647700D03*
X419100Y431800D03*
X355600Y381000D03*
X419100Y317500D03*
X952500Y266700D03*
X1066800Y317500D03*
X711200Y762000D03*
X736600Y736600D03*
X774700Y330200D03*
X774700Y304800D03*
X774700Y279400D03*
X774700Y177800D03*
X901700Y279400D03*
X901700Y254000D03*
X901700Y228600D03*
X774700Y254000D03*
X774700Y228600D03*
X774700Y203200D03*
X774700Y152400D03*
X914400Y215900D03*
X927100Y190500D03*
X279400Y177800D03*
X939800Y165100D03*
X254000Y190500D03*
X1041400Y228600D03*
X1054100Y254000D03*
X1054100Y266700D03*
X1066800Y292100D03*
X1066800Y190500D03*
X1066800Y165100D03*
X1071150Y139700D03*
M02*
