G04 EAGLE Gerber RS-274X export*
G75*
%MOMM*%
%FSLAX34Y34*%
%LPD*%
%INSolderpaste Bottom*%
%IPPOS*%
%AMOC8*
5,1,8,0,0,1.08239X$1,22.5*%
G01*
%ADD10R,0.600000X0.500000*%


D10*
X1087200Y190500D03*
X1097200Y190500D03*
X1087200Y165100D03*
X1097200Y165100D03*
X1087200Y139700D03*
X1097200Y139700D03*
X1160700Y317500D03*
X1150700Y317500D03*
X1160700Y292100D03*
X1150700Y292100D03*
X1099900Y317500D03*
X1109900Y317500D03*
X1099900Y292100D03*
X1109900Y292100D03*
X1099900Y266700D03*
X1109900Y266700D03*
X1099900Y215900D03*
X1109900Y215900D03*
X1099900Y241300D03*
X1109900Y241300D03*
X795100Y317500D03*
X805100Y317500D03*
X795100Y292100D03*
X805100Y292100D03*
X795100Y266700D03*
X805100Y266700D03*
X795100Y241300D03*
X805100Y241300D03*
X795100Y215900D03*
X805100Y215900D03*
X795100Y190500D03*
X805100Y190500D03*
X795100Y165100D03*
X805100Y165100D03*
X795100Y139700D03*
X805100Y139700D03*
X881300Y266700D03*
X871300Y266700D03*
X881300Y241300D03*
X871300Y241300D03*
X881300Y215900D03*
X871300Y215900D03*
X881300Y190500D03*
X871300Y190500D03*
X881300Y165100D03*
X871300Y165100D03*
X881300Y139700D03*
X871300Y139700D03*
M02*
